<svg xmlns="http://www.w3.org/2000/svg" width="19.872" height="14.954" viewBox="0 0 19.872 14.954">
  <g id="email_icon" transform="translate(0.1 -63.9)">
    <g id="Group_746" data-name="Group 746" transform="translate(0 64)">
      <path id="Path_12778" data-name="Path 12778" d="M18.033,64H1.639A1.641,1.641,0,0,0,0,65.639V77.115a1.641,1.641,0,0,0,1.639,1.639H18.033a1.641,1.641,0,0,0,1.639-1.639V65.639A1.641,1.641,0,0,0,18.033,64Zm-16.393.82H18.033a.78.78,0,0,1,.17.034c-1.419,1.3-6.125,5.6-7.772,7.088a.822.822,0,0,1-1.19,0c-1.647-1.484-6.353-5.789-7.772-7.087A.783.783,0,0,1,1.639,64.82ZM.82,77.115V65.639a.792.792,0,0,1,.046-.227c1.086.994,4.37,4,6.5,5.934-2.122,1.823-5.407,4.937-6.5,5.981A.79.79,0,0,1,.82,77.115Zm17.213.82H1.639a.784.784,0,0,1-.185-.037c1.131-1.079,4.437-4.21,6.522-5.994l.716.648a1.637,1.637,0,0,0,2.287,0L11.7,71.9c2.085,1.783,5.39,4.915,6.522,5.994A.783.783,0,0,1,18.033,77.934Zm.82-.82a.791.791,0,0,1-.043.214c-1.1-1.045-4.379-4.158-6.5-5.981,2.129-1.936,5.412-4.94,6.5-5.934a.792.792,0,0,1,.046.227Z" transform="translate(0 -64)" fill="#009de2" stroke="#009de2" stroke-width="0.2"/>
    </g>
  </g>
</svg>
