<svg xmlns="http://www.w3.org/2000/svg" width="37.94" height="23.254" viewBox="0 0 37.94 23.254">
  <path id="employee" d="M25.961,113.95a5.294,5.294,0,1,0-5.294-5.294A5.294,5.294,0,0,0,25.961,113.95Zm0-9.216a3.922,3.922,0,1,1-3.922,3.922A3.922,3.922,0,0,1,25.961,104.734Zm11.468,12.079a4.252,4.252,0,1,0-4.252-4.252A4.252,4.252,0,0,0,37.428,116.814Zm0-7.133a2.881,2.881,0,1,1-2.881,2.881,2.881,2.881,0,0,1,2.881-2.881Zm-22.953,7.133a4.252,4.252,0,1,0-4.252-4.252A4.252,4.252,0,0,0,14.475,116.814Zm0-7.133a2.881,2.881,0,1,1-2.881,2.881,2.881,2.881,0,0,1,2.881-2.881ZM44.86,121.849a6.323,6.323,0,0,0-1.366-3.3,3.67,3.67,0,0,0-3.211-1.4.685.685,0,0,0-.381.164,3.559,3.559,0,0,1-2.465,1.044h-.055a3.555,3.555,0,0,1-2.465-1.044.685.685,0,0,0-.381-.164,3.528,3.528,0,0,0-.439-.016,6.494,6.494,0,0,0-.452-.607,4.551,4.551,0,0,0-3.976-1.744.685.685,0,0,0-.381.164,4.848,4.848,0,0,1-3.324,1.4h-.055a4.853,4.853,0,0,1-3.324-1.4.685.685,0,0,0-.381-.164,4.552,4.552,0,0,0-3.976,1.744,6.526,6.526,0,0,0-.453.608,3.517,3.517,0,0,0-.446.015.685.685,0,0,0-.381.164,3.56,3.56,0,0,1-2.465,1.044h-.055a3.562,3.562,0,0,1-2.465-1.044.685.685,0,0,0-.381-.164,3.671,3.671,0,0,0-3.211,1.4A6.323,6.323,0,0,0,7,121.849c-.293,2.575.96,4.489,3.116,4.763a.685.685,0,0,0,.087.006h8.5a.685.685,0,0,0,.087-.006,3.807,3.807,0,0,0,.755-.175,4.812,4.812,0,0,0,.814.175.684.684,0,0,0,.087.006H31.425a.685.685,0,0,0,.087-.006,4.821,4.821,0,0,0,.809-.174,3.827,3.827,0,0,0,.753.174.686.686,0,0,0,.087.006h8.5a.688.688,0,0,0,.087-.006C43.9,126.338,45.152,124.423,44.86,121.849Zm-33.332,3.4v-2.612a.686.686,0,1,0-1.371,0v2.6C8.6,124.948,8.21,123.394,8.368,122c.2-1.768,1.317-3.5,2.868-3.5h.013a4.816,4.816,0,0,0,3.208,1.226,4.407,4.407,0,0,0,2.4-.661,8.416,8.416,0,0,0-.349,1.615,6.416,6.416,0,0,0,.629,3.782,4.372,4.372,0,0,0,.551.785Zm19.853,0h-.089v-3.575a.686.686,0,1,0-1.371,0v3.575H21.952v-3.575a.686.686,0,1,0-1.371,0v3.575h-.089c-2.265-.314-2.841-2.481-2.621-4.413.27-2.375,1.788-4.7,3.9-4.7h.09a6.029,6.029,0,0,0,8.142,0c2.163-.069,3.721,2.294,3.994,4.7.219,1.932-.356,4.1-2.622,4.413Zm10.329-.017v-2.6a.686.686,0,0,0-1.371,0v2.612H34.184a4.38,4.38,0,0,0,.551-.785,6.416,6.416,0,0,0,.629-3.782,8.412,8.412,0,0,0-.348-1.61,4.4,4.4,0,0,0,2.393.656,4.817,4.817,0,0,0,3.208-1.226h.013c1.551,0,2.667,1.736,2.868,3.5.158,1.39-.236,2.944-1.789,3.226Z" transform="translate(-6.961 -103.363)" fill="#5b5b5b"/>
</svg>
