<svg id="google_icon" xmlns="http://www.w3.org/2000/svg" width="21.818" height="22.261" viewBox="0 0 21.818 22.261">
  <path id="Path_12176" data-name="Path 12176" d="M86.594,69.055A13.92,13.92,0,0,0,86.4,66.8H75.9v4.292h6.014a5.059,5.059,0,0,1-2.231,3.371l3.589,2.789a10.945,10.945,0,0,0,3.322-8.2Z" transform="translate(-64.776 -57.658)" fill="#4280ef"/>
  <path id="Path_12177" data-name="Path 12177" d="M44.842,92.872a10.648,10.648,0,0,0,7.372-2.692l-3.589-2.764A6.752,6.752,0,0,1,38.586,83.9L34.9,86.737A11.119,11.119,0,0,0,44.842,92.872Z" transform="translate(-33.718 -70.611)" fill="#34a353"/>
  <path id="Path_12178" data-name="Path 12178" d="M34.893,61.529a6.762,6.762,0,0,1,0-4.268L31.207,54.4a11.145,11.145,0,0,0,0,9.991Z" transform="translate(-30.025 -48.265)" fill="#f6b704"/>
  <path id="Path_12179" data-name="Path 12179" d="M44.842,33.512a6.072,6.072,0,0,1,4.268,1.673l3.177-3.2A10.712,10.712,0,0,0,44.842,29.1,11.119,11.119,0,0,0,34.9,35.234L38.586,38.1A6.658,6.658,0,0,1,44.842,33.512Z" transform="translate(-33.718 -29.098)" fill="#e54335"/>
</svg>
