<svg xmlns="http://www.w3.org/2000/svg" width="22.5" height="28.029" viewBox="0 0 22.5 28.029">
  <g id="pin" transform="translate(0.25 0.25)">
    <g id="Group_498" data-name="Group 498" transform="translate(4.998 5.284)">
      <g id="Group_497" data-name="Group 497">
        <path id="Path_12182" data-name="Path 12182" d="M166.949,110.062a6,6,0,1,0,6,6A6.009,6.009,0,0,0,166.949,110.062Zm0,9.476a3.475,3.475,0,1,1,3.475-3.475A3.479,3.479,0,0,1,166.949,119.538Z" transform="translate(-160.947 -110.062)" fill="#5b5b5b" stroke="#fff" stroke-width="0.5"/>
      </g>
    </g>
    <g id="Group_500" data-name="Group 500">
      <g id="Group_499" data-name="Group 499">
        <path id="Path_12183" data-name="Path 12183" d="M61.885,0a11.012,11.012,0,0,0-11,11v.3c0,3.068,1.759,6.642,5.227,10.624a45.215,45.215,0,0,0,5.1,4.984l.674.545.674-.545a45.207,45.207,0,0,0,5.1-4.984c3.469-3.982,5.227-7.557,5.227-10.624V11A11.012,11.012,0,0,0,61.885,0Zm8.854,11.3c0,5.184-6.679,11.459-8.854,13.364-2.175-1.906-8.854-8.181-8.854-13.364V11a8.854,8.854,0,1,1,17.707,0Z" transform="translate(-50.885)" fill="#5b5b5b" stroke="#fff" stroke-width="0.5"/>
      </g>
    </g>
  </g>
</svg>
