<svg xmlns="http://www.w3.org/2000/svg" width="15.527" height="21.738" viewBox="0 0 15.527 21.738">
  <g id="password_icon" transform="translate(-6 -2)">
    <path id="Path_12779" data-name="Path 12779" d="M19.2,9.763V7.209A5.217,5.217,0,0,0,13.989,2h-.45A5.217,5.217,0,0,0,8.329,7.209V9.763A2.329,2.329,0,0,0,6,12.093v7.22a4.433,4.433,0,0,0,4.425,4.425H17.1a4.433,4.433,0,0,0,4.425-4.425v-7.22A2.329,2.329,0,0,0,19.2,9.763ZM9.882,7.209a3.657,3.657,0,0,1,3.657-3.657h.45a3.657,3.657,0,0,1,3.657,3.657V9.763H9.882Zm10.093,12.1A2.872,2.872,0,0,1,17.1,22.185H10.425a2.872,2.872,0,0,1-2.872-2.872v-7.22a.776.776,0,0,1,.776-.776H19.2a.776.776,0,0,1,.776.776Z" transform="translate(0 0)" fill="#009de2"/>
    <path id="Path_12780" data-name="Path 12780" d="M16.329,19.885v2.546a.776.776,0,1,1-1.553,0V19.885a1.553,1.553,0,1,1,1.553,0Z" transform="translate(-1.789 -3.352)" fill="#009de2"/>
  </g>
</svg>
