<svg xmlns="http://www.w3.org/2000/svg" width="32.352" height="31.119" viewBox="0 0 32.352 31.119">
  <g id="web-browser" transform="translate(-0.21 -1.44)">
    <g id="Group_925" data-name="Group 925" transform="translate(0.71 1.94)">
      <g id="Group_924" data-name="Group 924" transform="translate(4.609 4.036)">
        <path id="Path_12977" data-name="Path 12977" d="M18.947,12.38H11.036a1.127,1.127,0,1,1,0-2.254h7.911a1.127,1.127,0,1,1,0,2.254Z" transform="translate(-9.909 -10.061)" fill="#5b5b5b" stroke="#fff" stroke-width="1"/>
        <g id="Group_923" data-name="Group 923" transform="translate(12.831)">
          <path id="Path_12978" data-name="Path 12978" d="M36.712,10A1.192,1.192,0,1,0,37.9,11.188,1.192,1.192,0,0,0,36.712,10Z" transform="translate(-35.52 -9.996)" fill="#5b5b5b" stroke="#fff" stroke-width="1"/>
          <path id="Path_12979" data-name="Path 12979" d="M43.619,10a1.192,1.192,0,1,0,1.192,1.192A1.192,1.192,0,0,0,43.619,10Z" transform="translate(-38.967 -9.996)" fill="#5b5b5b" stroke="#fff" stroke-width="1"/>
          <path id="Path_12980" data-name="Path 12980" d="M50.525,10a1.192,1.192,0,1,0,1.192,1.192A1.192,1.192,0,0,0,50.525,10Z" transform="translate(-42.413 -9.996)" fill="#5b5b5b" stroke="#fff" stroke-width="1"/>
        </g>
      </g>
      <path id="Path_12981" data-name="Path 12981" d="M28.915,1.94H3.856A3.148,3.148,0,0,0,.71,5.086V27.58a3.148,3.148,0,0,0,3.146,3.146H7.834a1.252,1.252,0,1,0,0-2.5H3.856a.643.643,0,0,1-.641-.641V12.4H29.557V27.58a.643.643,0,0,1-.641.641H27.893a1.252,1.252,0,1,0,0,2.5h1.022a3.148,3.148,0,0,0,3.146-3.146V5.086A3.148,3.148,0,0,0,28.915,1.94Zm.641,7.951H3.215v-4.8a.642.642,0,0,1,.641-.641H28.915a.642.642,0,0,1,.641.641Z" transform="translate(-0.71 -1.94)" fill="#5b5b5b" stroke="#fff" stroke-width="1"/>
    </g>
    <path id="Path_12982" data-name="Path 12982" d="M31.661,46.2l-3.574-3.574a6,6,0,0,1,2.516-.768,1.254,1.254,0,0,0,.776-.364l.139-.139a1.252,1.252,0,0,0-.4-2.039L19.984,34.651a1.253,1.253,0,0,0-1.639,1.639l4.662,11.132a1.252,1.252,0,0,0,.914.745,1.272,1.272,0,0,0,.241.024,1.256,1.256,0,0,0,.887-.367l.139-.139a1.255,1.255,0,0,0,.361-.774,6.014,6.014,0,0,1,.769-2.517l3.574,3.574a1.252,1.252,0,1,0,1.77-1.771ZM24.025,43.37l-2.189-5.228,5.228,2.189a7.522,7.522,0,0,0-1.673,1.232c-.024.021-.051.037-.073.06s-.039.049-.059.072A7.52,7.52,0,0,0,24.025,43.37Z" transform="translate(-8.751 -16.274)" fill="#5b5b5b" stroke="#fff" stroke-width="1"/>
  </g>
</svg>
